<svg xmlns="http://www.w3.org/2000/svg" fill="none" viewBox="0 0 20 14">
  <g fill-rule="evenodd" clip-path="url(#a)" clip-rule="evenodd">
    <path fill="#bd3d44" d="M0 0h28.5v1.077H0zm0 2.155h28.5v1.077H0zm0 2.152h28.5v1.08H0zM0 6.46h28.5V7.54H0zm0 2.155h28.5v1.077H0zm0 2.152h28.5v1.077H0zm0 2.155h28.5V14H0z"/>
    <path fill="#fff" d="M0 1.077h28.5v1.078H0zm0 2.155h28.5v1.075H0zm0 2.152h28.5v1.077H0zm0 2.155h28.5v1.077H0zm0 2.154h28.5v1.078H0zm0 2.152h28.5v1.078H0z"/>
    <path fill="#192f5d" d="M0 0h11.4v7.539H0z"/>
    <path fill="#fff" d="m.95.323.105.298h.334l-.27.183.103.3L.949.92l-.27.183.103-.298L.51.62h.34zm1.9 0 .103.298h.337l-.272.183.102.3L2.85.92l-.272.183.103-.298L2.41.62h.334zm1.899 0 .105.298h.332l-.27.183.103.3L4.746.92l-.27.183.103-.298L4.307.62h.337zm1.901 0 .103.298h.337l-.273.183.106.3L6.65.92l-.272.183.105-.298L6.211.62h.334zm1.899 0 .105.298h.334l-.27.183.103.3L8.55.92l-.27.183.103-.298-.27-.183h.334zm1.901 0 .103.298h.337l-.273.183.106.3L10.45.92l-.272.183.105-.298-.272-.183h.337zm-8.549.754.103.298h.337l-.273.184.1.298-.264-.184-.272.184.097-.298-.264-.184h.334zm1.899 0 .105.298h.334l-.272.184.105.298-.272-.184-.273.184.106-.298-.273-.184h.337zm1.901 0 .103.298h.337l-.273.184.103.298-.27-.184-.272.184.102-.298-.27-.184h.335zm1.899 0 .105.298h.334l-.272.184.105.298-.272-.184-.27.184.103-.298-.273-.184h.34zm1.901 0 .103.298h.336l-.272.184.103.298-.27-.184-.272.184.102-.298-.27-.184h.335zM.949 1.83l.106.304h.334l-.27.183.103.298-.273-.186-.27.186.103-.3L.51 2.13h.34zm1.902 0 .102.301h.337l-.272.183.102.298-.27-.186-.272.186.103-.3-.27-.184h.334zm1.898 0 .105.301h.332l-.27.183.103.298-.273-.186-.27.186.103-.3-.272-.184h.337zm1.901 0 .103.301h.337l-.273.183.106.298-.273-.186-.272.186.105-.3-.272-.184h.334zm1.899 0 .105.301h.334l-.27.183.103.298-.272-.186-.27.186.103-.3-.27-.184h.334zm1.901 0 .103.301h.337l-.273.183.106.298-.273-.186-.272.186.105-.3-.272-.184h.337zm-8.549.755.103.298h.337l-.273.183.103.301-.27-.186-.272.183.102-.298-.27-.183h.335zm1.899 0 .105.298h.334l-.272.183.105.301L3.8 3.18l-.273.183.106-.298-.273-.183h.337zm1.901 0 .103.298h.337l-.273.183.103.301-.27-.186-.272.183.102-.298-.27-.183h.335zm1.899 0 .105.298h.334l-.27.183.103.301L7.6 3.18l-.27.183.103-.298-.273-.183h.34zm1.901 0 .103.298h.336l-.272.183.103.301-.27-.186-.272.183.102-.298-.27-.183h.335zm-8.552.755.106.298h.334l-.27.183.103.3-.273-.185-.27.183.103-.298-.272-.183h.34zm1.902 0 .102.298h.337l-.272.183.102.298-.27-.183-.272.183.103-.298-.27-.183h.334zm1.898 0 .105.298h.332l-.27.183.103.3-.273-.185-.27.183.103-.298-.272-.183h.337zm1.901 0 .103.298h.337l-.273.183.106.3-.273-.185-.272.183.105-.298-.272-.183h.334zm1.899 0 .105.298h.334l-.27.183.103.3-.272-.185-.27.183.103-.298-.27-.183h.334zm1.901 0 .103.298h.337l-.273.183.106.3-.273-.185-.272.183.105-.298-.272-.183h.337zm-8.549.754.103.298h.337l-.273.184.103.298-.27-.186-.272.186.102-.301-.27-.183h.335zm1.899 0 .105.298h.334l-.272.184.105.298-.272-.186-.273.186.106-.301-.273-.183h.337zm1.901 0 .103.298h.337l-.273.184.103.298-.27-.186-.272.186.102-.301-.27-.183h.335zm1.899 0 .105.298h.334l-.27.184.103.298-.272-.186-.27.186.103-.301-.273-.183h.34zm1.901 0 .103.298h.336l-.272.184.103.298-.27-.186-.272.186.102-.301-.27-.183h.335zm-8.552.752.106.301h.334l-.27.183.103.296-.273-.184-.27.184.103-.298-.272-.184h.34zm1.902 0 .102.301h.337l-.272.183.105.296-.272-.184-.273.184.106-.298-.273-.184h.334zm1.898 0 .105.301h.332l-.27.183.103.296-.273-.184-.27.184.103-.298-.272-.184h.337zm1.901 0 .103.301h.337l-.273.183.106.296-.273-.184-.272.184.105-.298-.272-.184h.334zm1.899 0 .105.301h.334l-.27.183.103.296-.272-.184-.27.184.103-.298-.27-.184h.334zm1.901 0 .103.301h.337l-.273.183.106.296-.273-.184-.272.184.105-.298-.272-.184h.337zM1.901 5.6l.103.298h.337l-.273.183.103.301-.27-.186-.272.183.102-.298-.27-.183h.335zm1.899 0 .105.298h.334l-.272.183.105.301-.272-.186-.273.183.106-.298-.273-.183h.337zm1.901 0 .103.298h.337l-.273.183.103.301-.27-.186-.272.183.102-.298-.27-.183h.335zm1.899 0 .105.298h.334l-.27.183.103.301-.272-.186-.27.183.103-.298-.273-.183h.34zm1.901 0 .103.298h.336l-.272.183.103.301-.27-.186-.272.183.102-.298-.27-.183h.335zm-8.552.755.106.298h.334l-.27.183.103.298-.273-.183-.27.183.103-.3L.51 6.65h.34zm1.902 0 .102.298h.337l-.272.183.105.298-.272-.183-.273.183.106-.3-.273-.184h.334zm1.898 0 .105.298h.332l-.264.183.102.298-.272-.183-.27.183.103-.3-.272-.184h.336zm1.901 0 .103.298h.337l-.273.183.106.298-.273-.183-.272.183.105-.3-.272-.184h.334zm1.899 0 .105.298h.334l-.27.183.103.298-.272-.183-.27.183.103-.3-.27-.184h.334zm1.901 0 .103.298h.337l-.273.183.106.298-.273-.183-.272.183.105-.3-.272-.184h.337z"/>
  </g>
  <defs>
    <clipPath id="a">
      <path fill="#fff" d="M0 0h20v14H0z"/>
    </clipPath>
  </defs>
</svg>